<?xml version="1.0" encoding="utf-8"?>
<!-- Generator: Adobe Illustrator 24.1.2, SVG Export Plug-In . SVG Version: 6.00 Build 0)  -->
<svg version="1.1" id="Livello_1" xmlns="http://www.w3.org/2000/svg" xmlns:xlink="http://www.w3.org/1999/xlink" x="0px" y="0px"
	 width="256px" height="256px" viewBox="0 0 256 256" style="enable-background:new 0 0 256 256;" xml:space="preserve">
<style type="text/css">
	.st0{fill:#FFFFFF;}
</style>
<g>
	<g>
		<g>
			<path class="st0" d="M196,0H60C26.9,0,0,26.9,0,60v136c0,33.1,26.9,60,60,60h136c33.1,0,60-26.9,60-60V60C256,26.9,229.1,0,196,0
				z"/>
		</g>
	</g>
</g>
<path d="M152.7,32.6c26,0,47.1,21.1,47.1,47.1l0,0c0,16.1-8.2,31.1-21.8,39.7c7.5,11,11.5,24.1,11.5,37.5
	c0,36.8-29.8,66.6-66.6,66.6s-66.6-29.8-66.6-66.6c0-30.8,21.1-57.5,51-64.7c-1.1-4.1-1.7-8.2-1.7-12.4
	C105.6,53.7,126.7,32.6,152.7,32.6L152.7,32.6L152.7,32.6z M152.7,52.8c-14.8,0-26.8,12-26.8,26.8s12,26.8,26.8,26.8
	s26.8-12,26.8-26.8l0,0C179.5,64.8,167.5,52.8,152.7,52.8L152.7,52.8z M122.9,110.5c-25.6,0-46.4,20.8-46.4,46.4
	s20.8,46.4,46.4,46.4s46.4-20.8,46.4-46.4C169.2,131.2,148.5,110.5,122.9,110.5L122.9,110.5z M123.2,138.3
	c10.8,0,19.5,8.7,19.5,19.5s-8.7,19.5-19.5,19.5l0,0c-10.8,0-19.5-8.7-19.5-19.5S112.4,138.3,123.2,138.3L123.2,138.3z"/>
</svg>
