<?xml version="1.0" encoding="utf-8"?>
<!-- Generator: Adobe Illustrator 24.1.2, SVG Export Plug-In . SVG Version: 6.00 Build 0)  -->
<svg version="1.1" id="Livello_1" xmlns="http://www.w3.org/2000/svg" xmlns:xlink="http://www.w3.org/1999/xlink" x="0px" y="0px"
	 width="256px" height="256px" viewBox="0 0 256 256" style="enable-background:new 0 0 256 256;" xml:space="preserve">
<style type="text/css">
	.st0{fill:#FFFFFF;}
	.st1{fill-rule:evenodd;clip-rule:evenodd;}
</style>
<g>
	<g>
		<path class="st0" d="M196,0H60C26.9,0,0,26.9,0,60v136c0,33.1,26.9,60,60,60h136c33.1,0,60-26.9,60-60V60C256,26.9,229.1,0,196,0z
			"/>
	</g>
</g>
<path id="frame" class="st1" d="M22.2,71.3v0.2V76v104v4.7h68.5h74.6h68.5V180V76v-4.5v-0.2H22.2z M221.4,84v88.4h-56.1v7.6H90.7
	v-7.8H34.6V83.7h56.1V76h74.6v8H221.4z"/>
<g id="text" transform="scale(1.1087 .90193)">
	<path class="st1" d="M53.2,153.4c4.3,3.2,8.5,4.5,13.7,4.5c12.8,0,22.2-8,22.2-18.8c0-11.5-9.5-19.9-22.4-19.9
		c-5.4,0-9.2,1.3-13.5,4.6v-3.5H42.3c-2.3,0-3.2,0.2-4,0.6c-1.4,0.9-2.4,2.4-2.4,4.1c0,1.4,0.7,2.9,2,3.8c1,0.6,1.9,0.8,4.3,0.8h1.1
		v37.5h-1.1c-2.3,0-3.2,0.2-4,0.6c-1.4,0.8-2.4,2.4-2.4,4c0,1.5,0.7,2.9,2,3.8c0.9,0.7,2,0.9,4.3,0.9h15.7c2.1,0,3.3-0.2,4-0.6
		c1.4-0.9,2.4-2.4,2.4-4.1c0-1.4-0.7-2.9-2-3.8c-0.9-0.6-1.9-0.8-4.3-0.8h-4.9L53.2,153.4z M66.3,128.5c7.6,0,13,4.2,13,10
		c0,2.8-1.6,5.8-4.2,7.6c-2.3,1.6-5.2,2.4-8.9,2.4c-3.7,0-6.7-0.8-9-2.4c-2.4-1.8-4.2-4.8-4.2-7.5C53.2,132.7,58.5,128.5,66.3,128.5
		z"/>
	<path class="st1" d="M139.7,104.2h-10.9c-2.4,0-3.1,0.1-4,0.6c-1.4,0.9-2.4,2.4-2.4,4c0,1.5,0.7,2.9,2,3.8c1,0.6,1.9,0.9,4.3,0.9
		h1.1v9.6c-3.5-2.6-8-4-13.2-4c-7,0-12.1,1.8-16.4,5.7c-4.3,3.9-6.4,9-6.4,14.7c0,5.8,2.2,10.9,6.4,14.7c4.3,3.9,9.4,5.7,16.3,5.7
		c5.2,0,8.9-1.1,13.3-3.9v2.7h10.9c2.2,0,3.2-0.2,4-0.6c1.4-0.9,2.4-2.4,2.4-4.1c0-1.4-0.7-2.9-2-3.8c-1-0.6-1.8-0.8-4.3-0.8h-1.1
		L139.7,104.2z M116.9,128.4c4.3,0,7.1,1,9.7,3.3c2.2,2,3.4,4.9,3.4,7.6c0,6.7-5.3,11.2-13.2,11.2c-4.2,0-7.1-1.1-9.6-3.3
		c-2.2-2.1-3.4-4.9-3.4-7.8c0-2.8,1.3-5.6,3.4-7.7C109.6,129.4,112.5,128.4,116.9,128.4z"/>
	<path class="st1" d="M189.8,124.8c-2,0-3.2,0.7-5.2,3.3c-2,2.6-3.1,3.6-3.8,3.6c-0.5,0-1.6-0.6-3-1.8c-6.4-5.6-8.9-6.9-12.9-6.9
		c-4,0-7.1,1.6-10.7,5.6c-2.7,3-3.7,4.7-3.7,6.5c0,2.7,2.4,5.1,5.3,5.1c1.9,0,2.8-0.5,5.2-3.5c2.3-2.6,3.1-3.3,3.7-3.3
		c0.5,0,1.7,0.8,3.3,2.2c5.5,4.8,9,6.6,12.8,6.6c3.8,0,6.7-1.6,10.1-5.5c3.2-3.6,3.9-4.8,3.9-6.7C195,127.1,192.7,124.8,189.8,124.8
		L189.8,124.8z"/>
</g>
</svg>
