<?xml version="1.0" encoding="utf-8"?>
<!-- Generator: Adobe Illustrator 24.1.2, SVG Export Plug-In . SVG Version: 6.00 Build 0)  -->
<svg version="1.1" id="Livello_1" xmlns="http://www.w3.org/2000/svg" xmlns:xlink="http://www.w3.org/1999/xlink" x="0px" y="0px"
	 width="256px" height="256px" viewBox="0 0 256 256" style="enable-background:new 0 0 256 256;" xml:space="preserve">
<style type="text/css">
	.st0{fill:#FFFFFF;}
	.st1{fill-rule:evenodd;clip-rule:evenodd;}
</style>
<g>
	<g>
		<path class="st0" d="M196,0H60C26.9,0,0,26.9,0,60v136c0,33.1,26.9,60,60,60h136c33.1,0,60-26.9,60-60V60C256,26.9,229.1,0,196,0z
			"/>
	</g>
</g>
<g transform="matrix(0.666667,0,0,0.666667,-91.3333,-91.3333)">
	<path class="st1" d="M220.6,369.5c2,8.2,5,16.2,8.9,23.7c5.6,10.7,12.9,20.5,21.7,28.8l-49.9,13.5l-17.3-30l36.6-36.4L220.6,369.5z
		 M470.2,405.5l-17.3,30L402.9,422c8.8-8.3,16.1-18,21.7-28.8c3.9-7.7,7-15.7,9-24.1L470.2,405.5z M405.1,391.7
		c9.6-14.9,14.7-32.3,14.7-50.1c0-50.8-41.8-92.7-92.7-92.7c-50.8,0-92.7,41.8-92.7,92.7c0,50.8,41.8,92.7,92.7,92.7h0
		C358.6,434.3,388,418.2,405.1,391.7z M384.7,373.2c-11.5,21.1-33.7,34.2-57.7,34.2l0,0c-36.1,0-65.7-29.7-65.7-65.7l0,0
		c0-36.1,29.7-65.7,65.7-65.7l0,0c36.1,0,65.7,29.7,65.7,65.7l0,0C392.8,352.7,390,363.5,384.7,373.2L384.7,373.2z M354.4,356.6
		c2.5-4.6,3.8-9.7,3.8-14.9l0,0c0-17.1-14.1-31.2-31.2-31.2l0,0c-17.1,0-31.2,14.1-31.2,31.2l0,0c0,17.1,14.1,31.2,31.2,31.2l0,0
		C338.5,372.8,349,366.6,354.4,356.6L354.4,356.6z M309.9,186.8h34.6l13.3,50c-11.6-3.4-23.7-4.9-35.8-4.4
		c-8.6,0.4-17.1,1.8-25.4,4.2L309.9,186.8z"/>
</g>
</svg>
